# xmcd CD database file
#
# Track frame offsets:
#	150
#	25543
#	51497
#	75016
#	101188
#	120396
#	140733
#	169779
#	191540
#	226528
#
# Disc length: 3354 seconds
#
# Revision: 0
# Processed by: cddbd v1.5.2PL0 Copyright (c) Steve Scherf et al.
# Submitted via: CDex 1.51
#
DISCID=720d180a
DTITLE=The United Methodist Jazz Trio - Spirit Songs
DYEAR=2006
DGENRE=Jazz
TTITLE0=Just A Closer Walk With Thee
TTITLE1=This Is The Day
TTITLE2=Victory Is Mine
TTITLE3=There's Something About That Name
TTITLE4=Every Time I Feel The Spirit
TTITLE5=Come Sunday
TTITLE6=Joshua Fit The Battle Of Jericho
TTITLE7=There's A Sweet, Sweet Spirit In This Place
TTITLE8=You Hear The Lambs A-Cryin'
TTITLE9=We Are Climbing Jacob's Ladder
EXTD=YEAR: 2006
EXTT0=
EXTT1=
EXTT2=
EXTT3=
EXTT4=
EXTT5=
EXTT6=
EXTT7=
EXTT8=
EXTT9=
PLAYORDER=
